# xmcd CD database file
#
# Track frame offsets:
#	150
#	20675
#	40148
#	69040
#	102853
#
# Disc length: 1833 seconds
#
# Revision: 1
# Processed by: cddbd v1.5.2PL0 Copyright (c) Steve Scherf et al.
# Submitted via: CDex 1.70beta3
#
DISCID=34072705
DTITLE=Gil Evans - The Cool Jazz Collection 69
DYEAR=1900
DGENRE=Jazz
TTITLE0=Remember
TTITLE1=Sunken Treasure
TTITLE2=Angkor Wat
TTITLE3=Time of the Barracudas
TTITLE4=Concorde
EXTD=
EXTT0=
EXTT1=
EXTT2=
EXTT3=
EXTT4=
PLAYORDER=
